<?xml version="1.0" encoding="UTF-8" standalone="no"?><svg xmlns="http://www.w3.org/2000/svg" xmlns:xlink="http://www.w3.org/1999/xlink" contentScriptType="application/ecmascript" contentStyleType="text/css" height="283px" preserveAspectRatio="none" style="width:91px;height:283px;" version="1.1" viewBox="0 0 91 283" width="91px" zoomAndPan="magnify"><defs><filter height="300%" id="fj8itxb0z45qv" width="300%" x="-1" y="-1"><feGaussianBlur result="blurOut" stdDeviation="2.0"/><feColorMatrix in="blurOut" result="blurOut2" type="matrix" values="0 0 0 0 0 0 0 0 0 0 0 0 0 0 0 0 0 0 .4 0"/><feOffset dx="4.0" dy="4.0" in="blurOut2" result="blurOut3"/><feBlend in="SourceGraphic" in2="blurOut3" mode="normal"/></filter></defs><g><!--MD5=[aa7f586532e18719e6cefa70fc650583]
class Object--><rect fill="#FEFECE" filter="url(#fj8itxb0z45qv)" height="48" id="Object" style="stroke: #A80036; stroke-width: 1.5;" width="72" x="7" y="8"/><ellipse cx="22" cy="24" fill="#ADD1B2" rx="11" ry="11" style="stroke: #A80036; stroke-width: 1.0;"/><path d="M24.9688,29.6406 Q24.3906,29.9375 23.75,30.0781 Q23.1094,30.2344 22.4063,30.2344 Q19.9063,30.2344 18.5781,28.5938 Q17.2656,26.9375 17.2656,23.8125 Q17.2656,20.6875 18.5781,19.0313 Q19.9063,17.375 22.4063,17.375 Q23.1094,17.375 23.75,17.5313 Q24.4063,17.6875 24.9688,17.9844 L24.9688,20.7031 Q24.3438,20.125 23.75,19.8594 Q23.1563,19.5781 22.5313,19.5781 Q21.1875,19.5781 20.5,20.6563 Q19.8125,21.7188 19.8125,23.8125 Q19.8125,25.9063 20.5,26.9844 Q21.1875,28.0469 22.5313,28.0469 Q23.1563,28.0469 23.75,27.7813 Q24.3438,27.5 24.9688,26.9219 L24.9688,29.6406 Z "/><text fill="#000000" font-family="sans-serif" font-size="12" lengthAdjust="spacingAndGlyphs" textLength="40" x="36" y="28.1543">Object</text><line style="stroke: #A80036; stroke-width: 1.5;" x1="8" x2="78" y1="40" y2="40"/><line style="stroke: #A80036; stroke-width: 1.5;" x1="8" x2="78" y1="48" y2="48"/><!--MD5=[cf9bc73d4b319b8f5d50999aecc13d13]
class Parent--><rect fill="#FEFECE" filter="url(#fj8itxb0z45qv)" height="48" id="Parent" style="stroke: #A80036; stroke-width: 1.5;" width="74" x="6" y="116"/><ellipse cx="21" cy="132" fill="#ADD1B2" rx="11" ry="11" style="stroke: #A80036; stroke-width: 1.0;"/><path d="M23.9688,137.6406 Q23.3906,137.9375 22.75,138.0781 Q22.1094,138.2344 21.4063,138.2344 Q18.9063,138.2344 17.5781,136.5938 Q16.2656,134.9375 16.2656,131.8125 Q16.2656,128.6875 17.5781,127.0313 Q18.9063,125.375 21.4063,125.375 Q22.1094,125.375 22.75,125.5313 Q23.4063,125.6875 23.9688,125.9844 L23.9688,128.7031 Q23.3438,128.125 22.75,127.8594 Q22.1563,127.5781 21.5313,127.5781 Q20.1875,127.5781 19.5,128.6563 Q18.8125,129.7188 18.8125,131.8125 Q18.8125,133.9063 19.5,134.9844 Q20.1875,136.0469 21.5313,136.0469 Q22.1563,136.0469 22.75,135.7813 Q23.3438,135.5 23.9688,134.9219 L23.9688,137.6406 Z "/><text fill="#000000" font-family="sans-serif" font-size="12" lengthAdjust="spacingAndGlyphs" textLength="42" x="35" y="136.1543">Parent</text><line style="stroke: #A80036; stroke-width: 1.5;" x1="7" x2="79" y1="148" y2="148"/><line style="stroke: #A80036; stroke-width: 1.5;" x1="7" x2="79" y1="156" y2="156"/><!--MD5=[661c05259cf57e4b4baa54079a4420a8]
class Child--><rect fill="#FEFECE" filter="url(#fj8itxb0z45qv)" height="48" id="Child" style="stroke: #A80036; stroke-width: 1.5;" width="62" x="12" y="224"/><ellipse cx="27" cy="240" fill="#ADD1B2" rx="11" ry="11" style="stroke: #A80036; stroke-width: 1.0;"/><path d="M29.9688,245.6406 Q29.3906,245.9375 28.75,246.0781 Q28.1094,246.2344 27.4063,246.2344 Q24.9063,246.2344 23.5781,244.5938 Q22.2656,242.9375 22.2656,239.8125 Q22.2656,236.6875 23.5781,235.0313 Q24.9063,233.375 27.4063,233.375 Q28.1094,233.375 28.75,233.5313 Q29.4063,233.6875 29.9688,233.9844 L29.9688,236.7031 Q29.3438,236.125 28.75,235.8594 Q28.1563,235.5781 27.5313,235.5781 Q26.1875,235.5781 25.5,236.6563 Q24.8125,237.7188 24.8125,239.8125 Q24.8125,241.9063 25.5,242.9844 Q26.1875,244.0469 27.5313,244.0469 Q28.1563,244.0469 28.75,243.7813 Q29.3438,243.5 29.9688,242.9219 L29.9688,245.6406 Z "/><text fill="#000000" font-family="sans-serif" font-size="12" lengthAdjust="spacingAndGlyphs" textLength="30" x="41" y="244.1543">Child</text><line style="stroke: #A80036; stroke-width: 1.5;" x1="13" x2="73" y1="256" y2="256"/><line style="stroke: #A80036; stroke-width: 1.5;" x1="13" x2="73" y1="264" y2="264"/><!--MD5=[50cddf15da5a4df863cf49d6344d4c32]
reverse link Object to Parent--><path d="M43,76.02 C43,89.58 43,104.04 43,115.68 " fill="none" id="Object&lt;-Parent" style="stroke: #A80036; stroke-width: 1.0;"/><polygon fill="none" points="36,76,43,56,50,76,36,76" style="stroke: #A80036; stroke-width: 1.0;"/><!--MD5=[698bd73ad581ce73a8c6f885ca2f3411]
reverse link Parent to Child--><path d="M43,184.02 C43,197.58 43,212.04 43,223.68 " fill="none" id="Parent&lt;-Child" style="stroke: #A80036; stroke-width: 1.0;"/><polygon fill="none" points="36,184,43,164,50,184,36,184" style="stroke: #A80036; stroke-width: 1.0;"/><!--MD5=[a3bb01bf691cf9aeb39991e4fbed4e87]
@startuml object_inheritance.svg 
Object <|- - Parent
Parent <|- - Child
@enduml

PlantUML version 1.2020.02(Sun Mar 01 19:22:07 KST 2020)
(GPL source distribution)
Java Runtime: OpenJDK Runtime Environment
JVM: OpenJDK 64-Bit Server VM
Java Version: 21.0.4+7-LTS
Operating System: Linux
Default Encoding: UTF-8
Language: en
Country: US
--></g></svg>